<svg aria-hidden="true" style="position:absolute;width:0;height:0" xmlns="http://www.w3.org/2000/svg" overflow="hidden">

  <defs>
    
    <symbol id="icon-arrow" viewBox="0 0 8 8">
      <path d="M7.35348 4.15842C7.54874 3.96316 7.54874 3.64658 7.35348 3.45132L4.1715 0.269337C3.97623 0.0740748 3.65965 0.0740748 3.46439 0.269337C3.26913 0.464599 3.26913 0.781182 3.46439 0.976444L6.29282 3.80487L3.46439 6.6333C3.26913 6.82856 3.26913 7.14514 3.46439 7.3404C3.65965 7.53567 3.97623 7.53567 4.1715 7.3404L7.35348 4.15842ZM0.170654 4.30487L6.99992 4.30487L6.99992 3.30487L0.170654 3.30487L0.170654 4.30487Z" />
    </symbol>

    <symbol id="icon-man" viewBox="0 0 26 26">
      <path d="M0.000106812 12.8049C0.000106812 5.7445 5.74461 0 12.805 0C19.8654 0 25.6099 5.7445 25.6099 12.8049C25.6099 16.5341 24.0062 19.8955 21.4536 22.2376L21.4657 22.2484L21.0504 22.5985C21.0234 22.6213 20.9941 22.64 20.967 22.6623C20.7463 22.8453 20.5177 23.019 20.2849 23.1871C20.2095 23.2416 20.134 23.296 20.0572 23.3491C19.8086 23.5205 19.5534 23.683 19.2926 23.8371C19.2358 23.8706 19.1786 23.9032 19.1213 23.9358C18.8358 24.0983 18.5444 24.2515 18.2459 24.3921C18.224 24.4024 18.2017 24.4117 18.1798 24.4219C17.2071 24.8741 16.1687 25.2061 15.0829 25.4021C15.0545 25.4072 15.026 25.4123 14.9972 25.4175C14.6601 25.4757 14.3192 25.5222 13.9742 25.5534C13.9323 25.5571 13.8904 25.5595 13.848 25.5632C13.5044 25.5916 13.157 25.6098 12.805 25.6098C12.4562 25.6098 12.1121 25.5916 11.7704 25.5641C11.727 25.5604 11.6837 25.5581 11.6404 25.5543C11.2982 25.5231 10.9602 25.478 10.6263 25.4207C10.5974 25.4156 10.5681 25.4105 10.5392 25.4049C9.46966 25.213 8.44621 24.8885 7.48607 24.448C7.45068 24.4317 7.41483 24.4163 7.37944 24.3996C7.09215 24.2645 6.81137 24.1188 6.53618 23.9637C6.46773 23.9251 6.39975 23.886 6.33177 23.8459C6.08126 23.6983 5.83494 23.5442 5.59561 23.3803C5.50946 23.3216 5.42518 23.2597 5.33997 23.1982C5.13556 23.0511 4.93488 22.8993 4.73977 22.7405C4.69647 22.7056 4.64991 22.6753 4.60753 22.6395L4.18148 22.2837L4.19405 22.273C1.61911 19.93 0.000106812 16.5532 0.000106812 12.8049ZM24.6786 12.8049C24.6786 6.25763 19.3522 0.931264 12.805 0.931264C6.25773 0.931264 0.931372 6.25763 0.931372 12.8049C0.931372 16.333 2.4796 19.5049 4.93068 21.6812C5.06758 21.5867 5.20541 21.502 5.34649 21.4312L9.289 19.4602C9.64288 19.2832 9.86266 18.9275 9.86266 18.5322V17.1553C9.77139 17.0426 9.67501 16.915 9.57536 16.7749C9.06503 16.0541 8.65574 15.2522 8.35727 14.3894C7.76731 14.1091 7.38643 13.5215 7.38643 12.858V11.2073C7.38643 10.8036 7.5345 10.412 7.79944 10.1042V7.93111C7.77523 7.68898 7.68955 6.32561 8.67623 5.20064C9.53439 4.22095 10.9234 3.72506 12.805 3.72506C14.6866 3.72506 16.0756 4.22095 16.9337 5.20018C17.9204 6.32514 17.8347 7.68945 17.8105 7.93064V10.1037C18.075 10.4115 18.2235 10.8031 18.2235 11.2068V12.8575C18.2235 13.3702 17.9935 13.8484 17.5996 14.171C17.2224 15.6485 16.4462 16.7669 16.1594 17.146V18.4935C16.1594 18.8735 16.3666 19.2227 16.7005 19.4052L20.3822 21.4135C20.4996 21.4773 20.616 21.5518 20.7324 21.6351C23.1532 19.4597 24.6786 16.3074 24.6786 12.8049Z" />
    </symbol>

    <symbol id="icon-phone" viewBox="0 0 16 16">
      <path d="M15.6413 12.6447L13.1703 10.1735C12.6782 9.68329 11.8631 9.69818 11.3538 10.2077L10.109 11.4523C10.0303 11.4089 9.94889 11.3637 9.8633 11.3156C9.07718 10.88 8.00123 10.283 6.86902 9.14998C5.73346 8.01455 5.13589 6.93695 4.69898 6.15032C4.65287 6.06698 4.6087 5.98663 4.56507 5.91033L5.40057 5.07608L5.81133 4.66481C6.32142 4.15458 6.33549 3.33977 5.84447 2.84816L3.37352 0.376657C2.8825 -0.114269 2.0671 -0.0993755 1.557 0.410856L0.860607 1.11125L0.879637 1.13015C0.646126 1.4281 0.450997 1.77175 0.305787 2.14234C0.171932 2.49509 0.0885941 2.8317 0.0504876 3.169C-0.275785 5.87388 0.960263 8.34593 4.31474 11.7005C8.95164 16.337 12.6884 15.9868 12.8496 15.9697C13.2007 15.9277 13.5372 15.8438 13.8791 15.711C14.2465 15.5675 14.5899 15.3726 14.8877 15.1396L14.9029 15.1532L15.6084 14.4623C16.1174 13.9522 16.1321 13.1371 15.6413 12.6447Z" />
    </symbol>  

    <symbol id="icon-mail" viewBox="0 0 19 15">
      <path d="M1.82363 4.63744C2.06397 4.80704 2.78847 5.31076 3.99715 6.14833C5.20587 6.98591 6.13183 7.63082 6.77507 8.08311C6.84574 8.13268 6.99589 8.24045 7.22557 8.40657C7.4553 8.57279 7.64618 8.70711 7.79807 8.80957C7.95007 8.91199 8.13382 9.02689 8.34951 9.15409C8.56513 9.28117 8.76837 9.37676 8.95922 9.44004C9.1501 9.50384 9.3268 9.53544 9.48934 9.53544H9.5H9.5107C9.67324 9.53544 9.85001 9.5038 10.0409 9.44004C10.2317 9.37676 10.4351 9.28106 10.6505 9.15409C10.8661 9.02675 11.0498 8.91196 11.2018 8.80957C11.3538 8.70711 11.5445 8.57279 11.7744 8.40657C12.004 8.24031 12.1543 8.13268 12.225 8.08311C12.8752 7.63082 14.5294 6.48215 17.187 4.63721C17.703 4.27688 18.1341 3.84208 18.4803 3.33313C18.8269 2.82439 19 2.29071 19 1.73236C19 1.26578 18.832 0.866372 18.4962 0.534186C18.1605 0.201926 17.7628 0.0358887 17.3035 0.0358887H1.69636C1.15212 0.0358887 0.733297 0.21964 0.439956 0.587143C0.146652 0.95472 0 1.41417 0 1.96546C0 2.41077 0.194447 2.89332 0.583154 3.41282C0.971825 3.93236 1.38545 4.3406 1.82363 4.63744Z" />
      <path d="M17.9396 5.77173C15.6214 7.34079 13.8611 8.5602 12.6596 9.42971C12.2567 9.72647 11.9299 9.95813 11.6789 10.1241C11.4279 10.2902 11.0941 10.4599 10.6769 10.633C10.26 10.8063 9.87138 10.8927 9.51083 10.8927H9.50002H9.48936C9.12888 10.8927 8.74006 10.8063 8.32309 10.633C7.90612 10.4599 7.57208 10.2902 7.32115 10.1241C7.07029 9.95813 6.74334 9.72647 6.34049 9.42971C5.38619 8.72999 3.62971 7.5105 1.07098 5.77173C0.667973 5.50331 0.311018 5.19563 0 4.84933V13.2676C0 13.7344 0.166037 14.1336 0.498297 14.4658C0.830482 14.7982 1.22992 14.9643 1.69647 14.9643H17.3036C17.7701 14.9643 18.1695 14.7982 18.5017 14.4658C18.834 14.1335 19 13.7345 19 13.2676V4.84933C18.696 5.18847 18.3427 5.49614 17.9396 5.77173Z" />
    </symbol> 

    <symbol id="icon-arrow-next" viewBox="0 0 46 6">
      <path d="M45.2828 3.28285C45.4391 3.12664 45.4391 2.87337 45.2828 2.71716L42.7373 0.171577C42.581 0.0153669 42.3278 0.0153669 42.1716 0.171577C42.0154 0.327786 42.0154 0.581052 42.1716 0.737262L44.4343 3L42.1716 5.26275C42.0154 5.41896 42.0154 5.67222 42.1716 5.82843C42.3278 5.98464 42.581 5.98464 42.7373 5.82843L45.2828 3.28285ZM-3.49691e-08 3.4L45 3.4L45 2.6L3.49691e-08 2.6L-3.49691e-08 3.4Z" />
    </symbol> 

    <symbol id="icon-arrow-prev" viewBox="0 0 46 6">
      <path d="M0.717155 3.28285C0.560947 3.12664 0.560947 2.87337 0.717155 2.71716L3.26274 0.171577C3.41895 0.0153669 3.67222 0.0153669 3.82843 0.171577C3.98464 0.327786 3.98464 0.581052 3.82843 0.737262L1.56569 3L3.82843 5.26275C3.98464 5.41896 3.98464 5.67222 3.82843 5.82843C3.67222 5.98464 3.41895 5.98464 3.26274 5.82843L0.717155 3.28285ZM46 3.4L1 3.4L1 2.6L46 2.6L46 3.4Z" />
    </symbol> 

    <symbol id="icon-logo" viewBox="0 0 127 16">
      <path d="M14.3887 7.8418C14.3887 10.2441 13.7995 12.0703 12.6211 13.3203C11.4427 14.5703 9.71745 15.1953 7.44531 15.1953C5.20573 15.1953 3.48698 14.5671 2.28906 13.3105C1.09766 12.054 0.501953 10.2246 0.501953 7.82227C0.501953 5.44596 1.0944 3.63281 2.2793 2.38281C3.4707 1.1263 5.19922 0.498047 7.46484 0.498047C9.73698 0.498047 11.459 1.11979 12.6309 2.36328C13.8027 3.60677 14.3887 5.43294 14.3887 7.8418ZM4.56445 7.8418C4.56445 10.6022 5.52474 11.9824 7.44531 11.9824C8.42188 11.9824 9.14453 11.6471 9.61328 10.9766C10.0885 10.306 10.3262 9.26107 10.3262 7.8418C10.3262 6.41602 10.0853 5.36458 9.60352 4.6875C9.12826 4.00391 8.41536 3.66211 7.46484 3.66211C5.53125 3.66211 4.56445 5.05534 4.56445 7.8418ZM23.3242 3.68164C22.4062 3.68164 21.6901 4.05924 21.1758 4.81445C20.6615 5.56315 20.4043 6.59831 20.4043 7.91992C20.4043 10.6673 21.4492 12.041 23.5391 12.041C24.1706 12.041 24.7826 11.9531 25.375 11.7773C25.9674 11.6016 26.5632 11.39 27.1621 11.1426V14.4043C25.9707 14.9316 24.623 15.1953 23.1191 15.1953C20.9642 15.1953 19.3105 14.5703 18.1582 13.3203C17.0124 12.0703 16.4395 10.2637 16.4395 7.90039C16.4395 6.42253 16.7161 5.1237 17.2695 4.00391C17.8294 2.88411 18.6302 2.02474 19.6719 1.42578C20.7201 0.820312 21.9505 0.517578 23.3633 0.517578C24.9062 0.517578 26.3809 0.852865 27.7871 1.52344L26.6055 4.56055C26.0781 4.31315 25.5508 4.10482 25.0234 3.93555C24.4961 3.76628 23.9297 3.68164 23.3242 3.68164ZM40.5117 10.3613C40.5117 11.8587 39.9974 13.0078 38.9688 13.8086C37.9466 14.6029 36.4688 15 34.5352 15H29.9551V0.722656H39.3496V3.81836H33.832V5.99609H34.3887C36.3874 5.99609 37.9076 6.36068 38.9492 7.08984C39.9909 7.8125 40.5117 8.90299 40.5117 10.3613ZM33.832 12.0215H34.3496C35.1569 12.0215 35.7363 11.888 36.0879 11.6211C36.4395 11.3542 36.6152 10.9603 36.6152 10.4395C36.6152 9.91862 36.4264 9.53451 36.0488 9.28711C35.6777 9.03971 35.1048 8.91602 34.3301 8.91602H33.832V12.0215ZM53.4609 10.3613C53.4609 11.8587 52.9466 13.0078 51.918 13.8086C50.8958 14.6029 49.418 15 47.4844 15H42.9043V0.722656H52.2988V3.81836H46.7812V5.99609H47.3379C49.3366 5.99609 50.8568 6.36068 51.8984 7.08984C52.9401 7.8125 53.4609 8.90299 53.4609 10.3613ZM46.7812 12.0215H47.2988C48.1061 12.0215 48.6855 11.888 49.0371 11.6211C49.3887 11.3542 49.5645 10.9603 49.5645 10.4395C49.5645 9.91862 49.3757 9.53451 48.998 9.28711C48.627 9.03971 48.054 8.91602 47.2793 8.91602H46.7812V12.0215Z" fill="#86BC42"/>
      <path d="M64.1641 0.722656L63.7637 5.87891H61.0879L60.6875 0.722656H64.1641ZM68.8027 0.722656L68.4023 5.87891H65.7266L65.3262 0.722656H68.8027ZM77.8359 15H73.9785V3.87695H70.4922V0.722656H81.3125V3.87695H77.8359V15ZM88.4707 15.1953C86.6283 15.1953 85.196 14.707 84.1738 13.7305C83.1582 12.7474 82.6504 11.3509 82.6504 9.54102C82.6504 7.67253 83.1224 6.24023 84.0664 5.24414C85.0104 4.24154 86.3581 3.74023 88.1094 3.74023C89.776 3.74023 91.0618 4.17643 91.9668 5.04883C92.8783 5.91471 93.334 7.16471 93.334 8.79883V10.498H86.5078C86.5339 11.1165 86.7585 11.6016 87.1816 11.9531C87.6113 12.3047 88.194 12.4805 88.9297 12.4805C89.6003 12.4805 90.2155 12.4186 90.7754 12.2949C91.3418 12.1647 91.9538 11.9466 92.6113 11.6406V14.3848C92.0124 14.6908 91.3939 14.9023 90.7559 15.0195C90.1178 15.1367 89.3561 15.1953 88.4707 15.1953ZM88.2461 6.33789C87.7969 6.33789 87.4193 6.48112 87.1133 6.76758C86.8138 7.04753 86.638 7.49023 86.5859 8.0957H89.8672C89.8542 7.56185 89.7012 7.13542 89.4082 6.81641C89.1217 6.4974 88.7344 6.33789 88.2461 6.33789ZM100.531 15.1953C98.7214 15.1953 97.3477 14.707 96.4102 13.7305C95.4792 12.7539 95.0137 11.3509 95.0137 9.52148C95.0137 7.68555 95.5182 6.26302 96.5273 5.25391C97.5365 4.24479 98.972 3.74023 100.834 3.74023C102.117 3.74023 103.324 4.02018 104.457 4.58008L103.334 7.40234C102.872 7.20052 102.445 7.04102 102.055 6.92383C101.664 6.80013 101.257 6.73828 100.834 6.73828C100.215 6.73828 99.737 6.97917 99.3984 7.46094C99.0599 7.94271 98.8906 8.62305 98.8906 9.50195C98.8906 11.2728 99.5449 12.1582 100.854 12.1582C101.973 12.1582 103.048 11.8327 104.076 11.1816V14.2188C103.093 14.8698 101.911 15.1953 100.531 15.1953ZM116.537 6.77734H112.895V15H109.076V6.77734H105.434V3.93555H116.537V6.77734ZM121.684 0.722656L121.283 5.87891H118.607L118.207 0.722656H121.684ZM126.322 0.722656L125.922 5.87891H123.246L122.846 0.722656H126.322Z" />
    </symbol>

    <symbol id="icon-twiter" viewBox="0 0 21 19">
      <path d="M20.666 2.79795C20.1994 3.00485 19.715 3.16808 19.218 3.28625C19.7657 2.76585 20.1774 2.11494 20.4097 1.38841C20.476 1.181 20.2507 1.00165 20.0635 1.1127C19.372 1.52281 18.6273 1.83047 17.8498 2.02724C17.8047 2.03865 17.7582 2.04444 17.7115 2.04444C17.5699 2.04444 17.4322 1.99186 17.3239 1.89642C16.4967 1.16738 15.4328 0.765869 14.3283 0.765869C13.8503 0.765869 13.3678 0.840365 12.894 0.98731C11.4259 1.44263 10.2932 2.65357 9.93787 4.14759C9.80454 4.70797 9.76845 5.26887 9.8305 5.81467C9.83762 5.87739 9.80797 5.92116 9.78969 5.94169C9.75759 5.97769 9.71208 5.99832 9.66482 5.99832C9.65954 5.99832 9.65412 5.99806 9.64874 5.99755C6.43532 5.699 3.5376 4.15086 1.48934 1.63837C1.38489 1.51022 1.1846 1.52594 1.10135 1.66873C0.700246 2.35686 0.488277 3.14391 0.488277 3.94478C0.488277 5.17215 0.981385 6.32882 1.83791 7.17203C1.47772 7.08663 1.1291 6.95213 0.805257 6.77226C0.648585 6.68522 0.455816 6.79709 0.453615 6.97629C0.431189 8.79963 1.49871 10.4221 3.09789 11.1526C3.06569 11.1534 3.03348 11.1538 3.00123 11.1538C2.74774 11.1538 2.49107 11.1293 2.23845 11.081C2.06201 11.0473 1.91379 11.2147 1.96857 11.3858C2.48764 13.0063 3.88295 14.2008 5.55268 14.472C4.1669 15.4023 2.55313 15.893 0.873507 15.893L0.349883 15.8926C0.188552 15.8926 0.0521038 15.9978 0.0109901 16.1541C-0.0295092 16.308 0.0450894 16.4703 0.182664 16.5504C2.07533 17.6518 4.23418 18.234 6.42677 18.234C8.34601 18.234 10.1413 17.8531 11.7628 17.102C13.2493 16.4134 14.5629 15.4291 15.6671 14.1764C16.6957 13.0094 17.5 11.6623 18.0577 10.1725C18.5893 8.75232 18.8703 7.237 18.8703 5.79029V5.72138C18.8702 5.48908 18.9753 5.27051 19.1586 5.12172C19.8541 4.55698 20.4598 3.8922 20.9588 3.14586C21.0905 2.94879 20.8828 2.7018 20.666 2.79795Z" />
    </symbol>

    <symbol id="icon-facebook" viewBox="0 0 13 21">
      <path d="M11.749 0.0043694L9.02581 0C5.96639 0 3.98925 2.02849 3.98925 5.16813V7.55098H1.2512C1.01459 7.55098 0.822998 7.7428 0.822998 7.9794V11.4319C0.822998 11.6685 1.01481 11.8601 1.2512 11.8601H3.98925V20.5718C3.98925 20.8084 4.18085 21 4.41745 21H7.98984C8.22644 21 8.41803 20.8082 8.41803 20.5718V11.8601H11.6195C11.8561 11.8601 12.0477 11.6685 12.0477 11.4319L12.049 7.9794C12.049 7.8658 12.0037 7.757 11.9236 7.6766C11.8434 7.5962 11.7342 7.55098 11.6206 7.55098H8.41803V5.53101C8.41803 4.56013 8.64939 4.06726 9.9141 4.06726L11.7486 4.0666C11.985 4.0666 12.1766 3.87479 12.1766 3.6384V0.432571C12.1766 0.196405 11.9852 0.00480634 11.749 0.0043694Z" />
    </symbol>

    <symbol id="icon-telegram" viewBox="0 0 21 19">
      <path d="M20.6758 1.08603C20.4192 0.772324 20.035 0.599609 19.5938 0.599609C19.354 0.599609 19.0999 0.650078 18.8387 0.749893L1.06259 7.53558C0.119235 7.89558 -0.00781768 8.43584 0.000353394 8.72583C0.00852447 9.01582 0.166018 9.54806 1.12828 9.85424C1.13405 9.856 1.13982 9.85776 1.14559 9.85937L4.83283 10.9146L6.82689 16.6167C7.09878 17.3941 7.70905 17.877 8.41977 17.877C8.8679 17.877 9.30866 17.6892 9.69446 17.3341L11.9752 15.2342L15.2832 17.8978C15.2835 17.8981 15.284 17.8983 15.2843 17.8986L15.3157 17.9239C15.3186 17.9261 15.3216 17.9285 15.3245 17.9308C15.6922 18.216 16.0935 18.3666 16.4856 18.3667H16.4858C17.2518 18.3667 17.8617 17.7997 18.0394 16.9224L20.952 2.54064C21.0689 1.96338 20.9709 1.44684 20.6758 1.08603ZM6.06634 10.7141L13.1801 7.07992L8.75062 11.7866C8.67804 11.8637 8.62661 11.9581 8.6013 12.0608L7.74718 15.5205L6.06634 10.7141ZM8.86085 16.4289C8.83137 16.456 8.80173 16.4802 8.77209 16.5025L9.56453 13.293L11.006 14.4538L8.86085 16.4289ZM19.746 2.29631L16.8334 16.6782C16.8054 16.8158 16.7158 17.1361 16.4856 17.1361C16.3718 17.1361 16.2289 17.0741 16.0826 16.9615L12.3342 13.9433C12.3337 13.9428 12.3331 13.9423 12.3324 13.942L10.1021 12.146L16.5077 5.33948C16.7128 5.12158 16.7314 4.78785 16.5518 4.54848C16.372 4.30912 16.0463 4.23382 15.7798 4.37L5.24427 9.75234L1.50688 8.68305L19.2775 1.89945C19.4277 1.84209 19.5324 1.83008 19.5938 1.83008C19.6315 1.83008 19.6984 1.83456 19.7233 1.86517C19.7559 1.90506 19.7976 2.04108 19.746 2.29631Z" />       
    </symbol>

    <symbol id="icon-reg-step-1" viewBox="0 0 42 43">
      <g clip-path="url(#clip0)">
        <path d="M33.9694 13.0377C34.4166 13.0377 34.7793 12.6751 34.7793 12.2278V3.42017C34.7793 2.08044 33.6893 0.990479 32.3496 0.990479H2.86938C1.52966 0.990479 0.439697 2.08044 0.439697 3.42017V40.0275C0.439697 41.3672 1.52966 42.4571 2.86938 42.4571H32.3496C33.6893 42.4571 34.7793 41.3672 34.7793 40.0275V34.0608C34.7793 33.6135 34.4166 33.2509 33.9694 33.2509C33.5222 33.2509 33.1595 33.6135 33.1595 34.0608V40.0275C33.1595 40.474 32.7962 40.8374 32.3496 40.8374H2.86938C2.42281 40.8374 2.05949 40.474 2.05949 40.0275V3.42017C2.05949 2.97359 2.42281 2.61027 2.86938 2.61027H32.3496C32.7962 2.61027 33.1595 2.97359 33.1595 3.42017V12.2278C33.1595 12.6751 33.5222 13.0377 33.9694 13.0377Z" fill="white"/>
        <path d="M17.6086 5.3639C13.5001 5.3639 10.1576 8.70642 10.1576 12.8149C10.1576 14.9463 11.0574 16.8713 12.4967 18.2306C12.5237 18.2595 12.5524 18.2868 12.5837 18.3116C13.9096 19.5248 15.6741 20.2659 17.6086 20.2659C19.543 20.2659 21.3075 19.5247 22.6334 18.3116C22.6647 18.2868 22.6934 18.2594 22.7204 18.2306C24.1599 16.8713 25.0597 14.9463 25.0597 12.8149C25.0597 8.70642 21.7172 5.3639 17.6086 5.3639ZM17.6086 18.6462C16.2862 18.6462 15.0656 18.203 14.0863 17.4582C14.7981 16.196 16.1264 15.4066 17.6086 15.4066C19.0908 15.4066 20.4191 16.196 21.131 17.4582C20.1515 18.203 18.9311 18.6462 17.6086 18.6462ZM16.3128 12.491V11.9646C16.3128 11.2501 16.8941 10.6687 17.6086 10.6687C18.3231 10.6687 18.9045 11.2501 18.9045 11.9646V12.491C18.9045 13.2055 18.3231 13.7868 17.6086 13.7868C16.8941 13.7868 16.3128 13.2055 16.3128 12.491ZM22.3012 16.2718C21.7039 15.386 20.8761 14.697 19.915 14.2716C20.2964 13.7786 20.5243 13.1611 20.5243 12.491V11.9646C20.5243 10.3568 19.2164 9.04893 17.6086 9.04893C16.0009 9.04893 14.693 10.3568 14.693 11.9646V12.491C14.693 13.1611 14.9208 13.7786 15.3023 14.2716C14.3412 14.697 13.5134 15.386 12.9161 16.2718C12.201 15.3038 11.7774 14.1081 11.7774 12.8149C11.7774 9.59958 14.3933 6.98369 17.6086 6.98369C20.824 6.98369 23.4399 9.59958 23.4399 12.8149C23.4399 14.1081 23.0162 15.3038 22.3012 16.2718Z" fill="white"/>
        <path d="M21.982 36.4639H17.6086C17.1614 36.4639 16.7987 36.8265 16.7987 37.2738C16.7987 37.7211 17.1614 38.0837 17.6086 38.0837H21.982C22.4293 38.0837 22.7919 37.7211 22.7919 37.2738C22.7919 36.8265 22.4293 36.4639 21.982 36.4639Z" fill="white"/>
        <path d="M21.982 31.9285H10.4815C10.0343 31.9285 9.67163 32.2911 9.67163 32.7384C9.67163 33.1857 10.0343 33.5483 10.4815 33.5483H21.982C22.4293 33.5483 22.7919 33.1857 22.7919 32.7384C22.7919 32.2911 22.4293 31.9285 21.982 31.9285Z" fill="white"/>
        <path d="M21.982 27.3931H10.4815C10.0343 27.3931 9.67163 27.7557 9.67163 28.203C9.67163 28.6503 10.0343 29.0129 10.4815 29.0129H21.982C22.4293 29.0129 22.7919 28.6503 22.7919 28.203C22.7919 27.7557 22.4293 27.3931 21.982 27.3931Z" fill="white"/>
        <path d="M7.59489 23.0949C7.44433 22.9443 7.23538 22.8577 7.02157 22.8577C6.80848 22.8577 6.59953 22.9443 6.44897 23.0949C6.29833 23.2456 6.21167 23.4545 6.21167 23.6675C6.21167 23.8805 6.29825 24.0895 6.44897 24.2401C6.60042 24.3908 6.80848 24.4774 7.02157 24.4774C7.23538 24.4774 7.44352 24.3908 7.59489 24.2401C7.74553 24.0895 7.83227 23.8805 7.83227 23.6675C7.83227 23.4545 7.74561 23.2456 7.59489 23.0949Z" fill="white"/>
        <path d="M7.59489 27.6304C7.44352 27.4797 7.23538 27.3931 7.02157 27.3931C6.80848 27.3931 6.60042 27.4797 6.44897 27.6304C6.29833 27.781 6.21167 27.99 6.21167 28.203C6.21167 28.416 6.29825 28.6249 6.44897 28.7756C6.60042 28.9262 6.80848 29.0129 7.02157 29.0129C7.23538 29.0129 7.44352 28.9262 7.59489 28.7756C7.74553 28.6249 7.83227 28.416 7.83227 28.203C7.83227 27.99 7.74561 27.781 7.59489 27.6304Z" fill="white"/>
        <path d="M7.59489 32.1658C7.44352 32.0151 7.23538 31.9285 7.02157 31.9285C6.80848 31.9285 6.60042 32.0151 6.44897 32.1658C6.29833 32.3164 6.21167 32.5254 6.21167 32.7384C6.21167 32.9514 6.29825 33.1603 6.44897 33.311C6.59953 33.4616 6.80848 33.5483 7.02157 33.5483C7.23538 33.5483 7.44433 33.4616 7.59489 33.311C7.74553 33.1603 7.83227 32.9514 7.83227 32.7384C7.83227 32.5254 7.74561 32.3164 7.59489 32.1658Z" fill="white"/>
        <path d="M21.982 22.8577H10.4815C10.0343 22.8577 9.67163 23.2202 9.67163 23.6675C9.67163 24.1149 10.0343 24.4774 10.4815 24.4774H21.982C22.4293 24.4774 22.7919 24.1149 22.7919 23.6675C22.7919 23.2202 22.4293 22.8577 21.982 22.8577Z" fill="white"/>
        <path d="M40.2042 11.545C39.4174 11.0908 38.5008 10.9701 37.623 11.2052C36.7454 11.4404 36.0118 12.0033 35.5576 12.7901L25.3657 30.4428C25.3099 30.5396 25.2746 30.6469 25.2622 30.7579L24.5448 37.184C24.5092 37.5037 24.6661 37.8143 24.9447 37.9752C25.0705 38.0478 25.2102 38.0838 25.3496 38.0838C25.519 38.0838 25.6878 38.0307 25.8299 37.926L31.0363 34.0916C31.1263 34.0254 31.2016 33.9412 31.2574 33.8445L41.4492 16.1917C42.387 14.5674 41.8285 12.4829 40.2042 11.545ZM26.3599 35.5239L26.7346 32.1684L29.0786 33.5217L26.3599 35.5239ZM30.2596 32.3331L27.1735 30.5513L35.3522 16.3855L38.4383 18.1672L30.2596 32.3331ZM40.0464 15.3817L39.2481 16.7645L36.162 14.9827L36.9603 13.6C37.1983 13.1878 37.5825 12.893 38.0422 12.7698C38.5021 12.6466 38.9822 12.7099 39.3942 12.9479C39.8064 13.1858 40.1012 13.57 40.2244 14.0297C40.3476 14.4894 40.2844 14.9696 40.0464 15.3817Z" fill="white"/>
      </g>
      <defs>
        <clipPath id="clip0">
          <rect width="41.4667" height="41.4667" fill="white" transform="translate(0.438232 0.990479)"/>
        </clipPath>
      </defs>
    </symbol>

    <symbol id="icon-reg-step-2" viewBox="0 0 44 43">
      <path d="M36.8135 10.2684H12.5895L32.7898 2.23001C33.2556 2.04504 33.4821 1.51762 33.2975 1.05185C33.1125 0.586075 32.5851 0.359556 32.1193 0.544189L7.70492 10.2684H7.01631C3.81724 10.2684 0.083374 12.0809 0.083374 17.2013V35.9062C0.083374 41.0267 3.81724 42.8391 7.01631 42.8391H36.8135C40.0126 42.8391 43.7465 41.0267 43.7465 35.9062V17.2104C43.7555 12.0899 40.0398 10.2684 36.8135 10.2684ZM41.9431 35.9062C41.9431 40.5281 38.3181 41.0267 36.8226 41.0267H7.01631C5.47559 41.0267 1.89586 40.5281 1.89586 35.9062V17.2104C1.89586 12.5885 5.52082 12.0899 7.01631 12.0899H36.8135C38.3543 12.0899 41.934 12.5885 41.934 17.2104L41.9431 35.9062Z" />
      <path d="M9.05521 21.9864H34.7744C35.2747 21.9864 35.6809 21.5803 35.6809 21.08V15.8509C35.6809 15.3507 35.2747 14.9445 34.7744 14.9445H9.05521C8.55493 14.9445 8.1488 15.3507 8.1488 15.8509V21.08C8.1488 21.5803 8.55493 21.9864 9.05521 21.9864ZM33.8684 20.1736H27.4612V16.757H33.8684V20.1736ZM9.96129 16.757H25.6487V20.1736H9.96129V16.757Z" />
      <path d="M32.4091 25.0584C28.6954 25.0584 25.6849 28.0688 25.6849 31.7826C25.6849 35.4967 28.6954 38.5071 32.4091 38.5071C36.1232 38.5071 39.1336 35.4967 39.1336 31.7826C39.1336 28.0688 36.1229 25.0584 32.4091 25.0584ZM32.4091 36.6946C29.6969 36.6946 27.4974 34.4951 27.4974 31.7826C27.4974 29.0704 29.6969 26.8709 32.4091 26.8709C35.1216 26.8709 37.3211 29.0704 37.3211 31.7826C37.3158 34.4935 35.1196 36.6893 32.4091 36.6946Z" />
      <path d="M19.3501 31.3386C17.4334 31.3386 15.8793 32.8931 15.8793 34.8095C15.8793 36.7265 17.4334 38.2806 19.3501 38.2806C21.2668 38.2806 22.8213 36.7262 22.8213 34.8095C22.8213 32.8921 21.2668 31.3386 19.3501 31.3386ZM19.3501 36.4591C18.434 36.4591 17.6918 35.7169 17.6918 34.8008C17.6918 33.8843 18.434 33.1421 19.3501 33.1421C20.2666 33.1421 21.0084 33.8843 21.0084 34.8008C21.0084 35.7159 20.2666 36.4591 19.3501 36.4591Z"/>
      <path d="M10.3601 31.3386C8.44341 31.3386 6.88928 32.8931 6.88928 34.8095C6.88928 36.7265 8.44341 38.2806 10.3601 38.2806C12.2768 38.2806 13.8309 36.7262 13.8309 34.8095C13.8313 32.8921 12.2768 31.3386 10.3601 31.3386ZM10.3601 36.4591C9.44398 36.4591 8.70177 35.7169 8.70177 34.8008C8.70177 33.8843 9.44398 33.1421 10.3601 33.1421C11.2762 33.1421 12.0185 33.8843 12.0185 34.8008C12.0185 35.7169 11.2762 36.4591 10.3601 36.4591Z" />
    </symbol>

    <symbol id="icon-reg-step-3" viewBox="0 0 42 41">
      <path d="M38.4286 21.803C37.9652 21.803 37.5288 21.9207 37.1478 22.128C36.758 21.1221 35.7806 20.4067 34.6388 20.4067C33.9003 20.4067 33.2305 20.7059 32.7438 21.1893C32.2572 20.7059 31.5875 20.4067 30.849 20.4067C30.4574 20.4067 30.0854 20.4914 29.7495 20.6425V18.3438C29.774 18.3461 29.7989 18.3475 29.824 18.3475H36.426C37.7858 18.3475 38.8919 17.2414 38.8919 15.8817V12.4613C38.8919 12.022 38.5357 11.6658 38.0964 11.6658C37.6572 11.6658 37.301 12.022 37.301 12.4613V15.8818C37.301 16.3642 36.9085 16.7567 36.426 16.7567H29.824C29.7989 16.7567 29.7741 16.7583 29.7495 16.7605V15.0572C29.7495 13.5738 28.5426 12.3669 27.0592 12.3669C25.5758 12.3669 24.3689 13.5738 24.3689 15.0572V16.7567H23.2219C22.7395 16.7567 22.347 16.3642 22.347 15.8818V2.67766C22.347 2.19523 22.7395 1.80269 23.2219 1.80269H36.426C36.9085 1.80269 37.301 2.19523 37.301 2.67766V6.098C37.301 6.53724 37.6572 6.89343 38.0964 6.89343C38.5357 6.89343 38.8919 6.53724 38.8919 6.098V2.67766C38.8919 1.31795 37.7858 0.211828 36.426 0.211828H23.2219C21.8622 0.211828 20.7561 1.31795 20.7561 2.67766V15.8818C20.7561 17.2415 21.8622 18.3476 23.2219 18.3476H24.3689V25.0943L21.6277 29.1127C20.7079 30.4609 20.5673 32.2163 21.2603 33.6937L24.4441 40.4802C24.5795 40.7687 24.8659 40.9379 25.1648 40.9379C25.278 40.9379 25.3929 40.9137 25.5021 40.8625C25.8998 40.6759 26.0709 40.2022 25.8845 39.8045L22.7007 33.0181C22.2454 32.0477 22.3378 30.8947 22.9419 30.0092L24.3689 27.9173V29.4212C24.3689 29.8604 24.7251 30.2166 25.1643 30.2166C25.6035 30.2166 25.9597 29.8604 25.9597 29.4212V15.0572C25.9597 14.451 26.4529 13.9578 27.0592 13.9578C27.6654 13.9578 28.1587 14.451 28.1587 15.0572V26.8063C28.1587 27.2455 28.5149 27.6017 28.9541 27.6017C29.3933 27.6017 29.7495 27.2455 29.7495 26.8063V23.097C29.7495 22.4908 30.2427 21.9976 30.849 21.9976C31.4553 21.9976 31.9484 22.4908 31.9484 23.097V26.8063C31.9484 27.2455 32.3046 27.6017 32.7438 27.6017C33.1831 27.6017 33.5393 27.2455 33.5393 26.8063V23.097C33.5393 22.4908 34.0325 21.9976 34.6388 21.9976C35.2451 21.9976 35.7382 22.4908 35.7382 23.097V26.8063C35.7382 27.2455 36.0944 27.6017 36.5337 27.6017C36.9729 27.6017 37.3291 27.2455 37.3291 26.8063V24.4934C37.3291 23.8871 37.8223 23.394 38.4286 23.394C39.0349 23.394 39.5281 23.8871 39.5281 24.4934V31.1432C39.5281 32.9145 39.2594 34.6695 38.7294 36.3594L37.6177 39.9044C37.4863 40.3235 37.7195 40.7699 38.1387 40.9014C38.2179 40.9262 38.2981 40.938 38.3769 40.938C38.7153 40.9379 39.0291 40.7203 39.1357 40.3803L40.2474 36.8354C40.8257 34.9912 41.1189 33.076 41.1189 31.1431V24.4933C41.1189 23.0099 39.9121 21.803 38.4286 21.803Z" />
      <path d="M16.0639 0.211853H2.85975C1.50004 0.211853 0.393921 1.31798 0.393921 2.67768V15.8818C0.393921 17.2415 1.50004 18.3476 2.85975 18.3476H6.28009C6.71933 18.3476 7.07552 17.9914 7.07552 17.5522C7.07552 17.113 6.71933 16.7568 6.28009 16.7568H2.85975C2.37732 16.7568 1.98478 16.3642 1.98478 15.8818V2.67768C1.98478 2.19525 2.37732 1.80271 2.85975 1.80271H16.0639C16.5463 1.80271 16.9388 2.19525 16.9388 2.67768V15.8818C16.9388 16.3642 16.5463 16.7568 16.0639 16.7568H12.6435C12.2043 16.7568 11.8481 17.113 11.8481 17.5522C11.8481 17.9914 12.2043 18.3476 12.6435 18.3476H16.0639C17.4236 18.3476 18.5297 17.2415 18.5297 15.8818V2.67768C18.5297 1.31798 17.4236 0.211853 16.0639 0.211853Z" />
      <path d="M12.817 12.6357C13.1276 12.3251 13.1276 11.8214 12.817 11.5107L10.5859 9.27979L12.817 7.04876C13.1276 6.73814 13.1276 6.23447 12.817 5.92378C12.5064 5.61332 12.0029 5.61316 11.692 5.92378L9.46092 8.15481L7.22989 5.92378C6.9192 5.61324 6.41569 5.61324 6.10491 5.92378C5.79429 6.23439 5.79429 6.73806 6.10491 7.04876L8.33602 9.27979L6.10491 11.5108C5.79429 11.8214 5.79429 12.3251 6.10491 12.6358C6.26026 12.7911 6.46381 12.8688 6.66736 12.8688C6.87091 12.8688 7.07446 12.7911 7.22981 12.6358L9.46092 10.4048L11.692 12.6358C11.8474 12.7911 12.0509 12.8688 12.2545 12.8688C12.458 12.8688 12.6617 12.7911 12.817 12.6357Z" />
      <path d="M33.3585 5.40191L29.3946 9.36579L27.7304 7.70159C27.4197 7.39105 26.9162 7.39105 26.6054 7.70159C26.2948 8.0122 26.2948 8.51587 26.6054 8.82657L28.8321 11.0532C28.9874 11.2085 29.191 11.2862 29.3945 11.2862C29.5981 11.2862 29.8016 11.2085 29.957 11.0532L34.4833 6.52689C34.7939 6.21627 34.7939 5.7126 34.4833 5.40191C34.1727 5.09137 33.6692 5.09137 33.3585 5.40191Z" />
      <path d="M9.46096 16.7564C9.25176 16.7564 9.04654 16.8415 8.89859 16.9896C8.75064 17.1374 8.66553 17.3427 8.66553 17.5519C8.66553 17.7611 8.75056 17.9663 8.89859 18.1142C9.04654 18.263 9.25176 18.3473 9.46096 18.3473C9.67016 18.3473 9.87538 18.263 10.0233 18.1142C10.1712 17.9663 10.2564 17.7611 10.2564 17.5519C10.2564 17.3427 10.1713 17.1374 10.0233 16.9896C9.87538 16.8415 9.67016 16.7564 9.46096 16.7564Z" />
      <path d="M38.0963 8.48397C37.8871 8.48397 37.6819 8.56908 37.534 8.71711C37.386 8.86499 37.3009 9.07021 37.3009 9.27941C37.3009 9.48948 37.3859 9.69383 37.534 9.84178C37.6819 9.99052 37.8871 10.0748 38.0963 10.0748C38.3055 10.0748 38.5108 9.99052 38.6586 9.84178C38.8066 9.69383 38.8918 9.48861 38.8918 9.27941C38.8918 9.07021 38.8067 8.86499 38.6586 8.71711C38.5108 8.56908 38.3055 8.48397 38.0963 8.48397Z" />
    </symbol>
  </defs>
</svg>









